<?xml version="1.0" ?><!-- Uploaded to: SVG Repo, www.svgrepo.com, Generator: SVG Repo Mixer Tools -->
<svg width="800px" height="800px" viewBox="0 0 24 24" fill="none" xmlns="http://www.w3.org/2000/svg"><path clip-rule="evenodd" d="M20.4472 10.7236C20.4472 15.5415 16.5415 19.4472 11.7236 19.4472C6.90568 19.4472 3 15.5415 3 10.7236C3 5.90568 6.90568 2 11.7236 2C16.5415 2 20.4472 5.90568 20.4472 10.7236ZM15.9736 10.6275V11.8169C15.9736 12.2311 16.3094 12.5669 16.7236 12.5669C17.1378 12.5669 17.4736 12.2311 17.4736 11.8169V8.81689C17.4736 8.57311 17.3573 8.35648 17.1772 8.2195C17.1383 8.18988 17.0971 8.16458 17.0544 8.14359C16.9546 8.09448 16.8424 8.06689 16.7236 8.06689H13.7236C13.3094 8.06689 12.9736 8.40268 12.9736 8.81689C12.9736 9.23111 13.3094 9.56689 13.7236 9.56689H14.9129L12.3574 12.1224L10.0708 9.83585C9.77795 9.54295 9.30307 9.54295 9.01018 9.83585L6.1933 12.6527C5.90041 12.9456 5.90041 13.4205 6.1933 13.7134C6.4862 14.0063 6.96107 14.0063 7.25396 13.7134L9.54051 11.4268L11.8271 13.7134C12.12 14.0063 12.5948 14.0063 12.8877 13.7134L15.9736 10.6275Z" fill="#000000" fill-rule="evenodd"/><path clip-rule="evenodd" d="M15.4793 16.189C15.8055 15.9337 16.2769 15.9912 16.5322 16.3174L20.6177 21.5377C20.873 21.8639 20.8155 22.3353 20.4893 22.5906C20.1631 22.8459 19.6917 22.7884 19.4364 22.4622L15.3509 17.2418C15.0956 16.9156 15.1531 16.4443 15.4793 16.189Z" fill="#000000" fill-rule="evenodd"/></svg>